<svg width="233" height="47" viewBox="0 0 233 47" fill="none" xmlns="http://www.w3.org/2000/svg">
<path d="M4.40398 35.9999C3.31239 35.9999 2.29609 35.808 1.35507 35.424C0.45169 35.04 0 34.4639 0 33.6959V3.16795C0 2.36795 0.45169 1.79195 1.35507 1.43995C2.29609 1.08795 3.31239 0.911948 4.40398 0.911948C5.49556 0.911948 6.49304 1.08795 7.39642 1.43995C8.33744 1.79195 8.80795 2.36795 8.80795 3.16795V14.6879L19.3662 1.96795C19.9308 1.26395 20.7024 0.911948 21.6811 0.911948C22.4339 0.911948 23.2056 1.10395 23.996 1.48795C24.8241 1.87195 25.5017 2.35195 26.0286 2.92795C26.5932 3.50395 26.8755 4.11195 26.8755 4.75195C26.8755 4.94395 26.8379 5.16795 26.7626 5.42395C26.6873 5.67995 26.5368 5.93595 26.3109 6.19195L17.0513 16.0799L28.7388 31.2959C29.0399 31.7119 29.1905 32.1279 29.1905 32.5439C29.1905 33.1519 28.927 33.744 28.4 34.32C27.873 34.896 27.1955 35.3759 26.3674 35.7599C25.5769 36.1119 24.7488 36.2879 23.8831 36.2879C23.2808 36.2879 22.7162 36.1919 22.1893 35.9999C21.6623 35.7759 21.2106 35.408 20.8342 34.896L11.1793 22.4159L8.80795 25.0079V33.6959C8.80795 34.4639 8.33744 35.04 7.39642 35.424C6.49304 35.808 5.49556 35.9999 4.40398 35.9999Z" fill="white"/>
<path d="M44.7402 36.4799C41.9548 36.4799 39.4893 36.0639 37.3438 35.2319C35.1983 34.3679 33.5044 33.1679 32.2623 31.6319C31.0578 30.0959 30.4555 28.3199 30.4555 26.3039V22.7999C30.4555 21.0079 31.039 19.3599 32.2058 17.8559C33.3727 16.3519 34.9348 15.1519 36.8921 14.2559C38.8494 13.3279 41.0326 12.8639 43.4416 12.8639C45.6248 12.8639 47.6198 13.2479 49.4265 14.0159C51.2709 14.7839 52.7577 15.8559 53.8869 17.2319C55.0162 18.5759 55.5808 20.1599 55.5808 21.9839C55.5808 23.4239 55.2985 24.4639 54.7339 25.1039C54.2069 25.7119 53.5105 26.0959 52.6448 26.2559C51.8167 26.3839 50.9698 26.4479 50.104 26.4479H39.207V26.7359C39.207 27.9199 39.734 28.8799 40.7879 29.6159C41.8419 30.3199 43.2346 30.6719 44.9661 30.6719C46.1329 30.6719 47.1304 30.5279 47.9585 30.2399C48.7866 29.9199 49.5206 29.6159 50.1605 29.3279C50.8004 29.0399 51.4215 28.8959 52.0237 28.8959C52.7013 28.8959 53.2847 29.0879 53.774 29.4719C54.2634 29.8559 54.6209 30.3039 54.8468 30.8159C55.1103 31.3279 55.242 31.7759 55.242 32.1599C55.242 32.7679 54.8091 33.4079 53.9434 34.0799C53.0777 34.7519 51.8543 35.3279 50.2734 35.8079C48.7302 36.2559 46.8858 36.4799 44.7402 36.4799ZM39.207 22.2719H46.2082C46.6223 22.2719 46.9234 22.1919 47.1116 22.0319C47.2998 21.8719 47.3939 21.5679 47.3939 21.1199C47.3939 20.4799 47.1869 19.9519 46.7728 19.5359C46.3964 19.0879 45.8883 18.7679 45.2484 18.5759C44.6461 18.3519 43.9874 18.2399 43.2722 18.2399C42.5947 18.2399 41.936 18.3519 41.2961 18.5759C40.6938 18.7679 40.1857 19.0879 39.7716 19.5359C39.3952 19.9519 39.207 20.4799 39.207 21.1199V22.2719Z" fill="white"/>
<path d="M61.0064 46.4159C59.8771 46.4159 58.9173 46.24 58.1268 45.888C57.374 45.536 56.9976 44.6559 56.9976 43.2479C56.9976 42.4159 57.1482 41.6959 57.4493 41.0879C57.7881 40.4799 58.3527 40.1759 59.1431 40.1759C59.6701 40.1759 60.3665 40.1279 61.2322 40.0319C62.0979 39.9679 62.9825 39.7439 63.8859 39.3599C64.8269 39.0079 65.5985 38.3999 66.2008 37.5359C66.8407 36.7039 67.1606 35.5359 67.1606 34.0319L57.2799 17.3279C57.0917 17.0079 56.9976 16.6879 56.9976 16.3679C56.9976 15.7279 57.3364 15.1359 58.0139 14.5919C58.6914 14.0479 59.4819 13.6159 60.3853 13.2959C61.3263 12.9759 62.1732 12.8159 62.926 12.8159C63.453 12.8159 63.9423 12.9119 64.394 13.1039C64.8457 13.2639 65.1657 13.5679 65.3539 14.0159L71.734 27.0239L76.4203 14.0159C76.6085 13.5679 76.9096 13.2639 77.3236 13.1039C77.7753 12.9119 78.227 12.8159 78.6787 12.8159C79.3563 12.8159 80.1655 12.9919 81.1066 13.3439C82.0852 13.6639 82.9321 14.0959 83.6473 14.6399C84.3625 15.1839 84.7201 15.8079 84.7201 16.5119C84.7201 16.8319 84.6448 17.1039 84.4942 17.3279L76.4767 34.32C75.7615 35.824 75.084 37.296 74.4441 38.736C73.8042 40.176 72.9761 41.4719 71.9598 42.6239C70.9812 43.7759 69.6261 44.6879 67.8946 45.3599C66.1631 46.0639 63.8671 46.4159 61.0064 46.4159Z" fill="white"/>
<path d="M92.3476 35.9999C91.0678 35.9999 90.0139 35.7599 89.1858 35.2799C88.3953 34.7999 88.0001 34.2719 88.0001 33.6959V2.35195C88.0001 1.67995 88.3953 1.13595 89.1858 0.719948C90.0139 0.303947 91.0678 0.0959473 92.3476 0.0959473C93.5521 0.0959473 94.5872 0.303947 95.453 0.719948C96.3187 1.13595 96.7516 1.67995 96.7516 2.35195V33.6959C96.7516 34.2719 96.3187 34.7999 95.453 35.2799C94.5872 35.7599 93.5521 35.9999 92.3476 35.9999Z" fill="white"/>
<path d="M108.027 36.4799C106.069 36.4799 104.375 35.9679 102.945 34.9439C101.515 33.8879 100.8 32.2719 100.8 30.0959C100.8 28.2079 101.364 26.7359 102.493 25.6799C103.623 24.6239 105.166 23.8879 107.123 23.4719C109.118 23.0559 111.414 22.8479 114.012 22.8479H116.044V22.3679C116.044 21.8239 115.912 21.2799 115.649 20.7359C115.385 20.1919 114.953 19.7439 114.35 19.3919C113.748 19.0079 112.901 18.8159 111.81 18.8159C110.266 18.8159 109.118 18.9439 108.365 19.1999C107.613 19.4559 107.029 19.7279 106.615 20.0159C106.201 20.2719 105.731 20.3999 105.204 20.3999C104.263 20.3999 103.529 19.9999 103.002 19.1999C102.512 18.3999 102.268 17.5679 102.268 16.7039C102.268 15.9359 102.776 15.2639 103.792 14.6879C104.846 14.1119 106.107 13.6639 107.575 13.3439C109.081 13.0239 110.53 12.8639 111.922 12.8639C115.009 12.8639 117.493 13.3119 119.375 14.2079C121.257 15.1039 122.631 16.2719 123.497 17.7119C124.363 19.1199 124.796 20.6399 124.796 22.2719V33.6959C124.796 34.3359 124.382 34.8799 123.553 35.3279C122.763 35.7759 121.747 35.9999 120.505 35.9999C119.413 35.9999 118.491 35.7759 117.738 35.3279C116.985 34.8799 116.609 34.3359 116.609 33.6959V32.6399C115.592 33.6319 114.407 34.5279 113.052 35.3279C111.697 36.0959 110.022 36.4799 108.027 36.4799ZM111.81 31.0559C112.412 31.0559 113.033 30.8639 113.673 30.4799C114.313 30.0639 114.858 29.5199 115.31 28.8479C115.799 28.1759 116.044 27.4399 116.044 26.6399V26.4479H115.818C114.764 26.4479 113.748 26.5119 112.769 26.6399C111.828 26.7359 111.057 26.9759 110.454 27.3599C109.89 27.7119 109.608 28.2719 109.608 29.0399C109.608 29.7439 109.815 30.2559 110.229 30.5759C110.643 30.8959 111.17 31.0559 111.81 31.0559Z" fill="white"/>
<path d="M145.323 35.9999C144.382 35.9999 143.498 35.808 142.67 35.424C141.879 35.04 141.484 34.4639 141.484 33.6959V3.16795C141.484 2.36795 141.936 1.79195 142.839 1.43995C143.78 1.08795 144.796 0.911948 145.888 0.911948C146.979 0.911948 147.977 1.08795 148.88 1.43995C149.821 1.79195 150.292 2.36795 150.292 3.16795V29.4719H163.165C164.031 29.4719 164.671 29.8079 165.085 30.4799C165.499 31.1519 165.706 31.9039 165.706 32.7359C165.706 33.5359 165.499 34.2879 165.085 34.9919C164.671 35.6639 164.031 35.9999 163.165 35.9999H145.323Z" fill="white"/>
<path d="M173.113 8.73595C171.833 8.73595 170.741 8.38395 169.838 7.67995C168.935 6.97595 168.483 6.17595 168.483 5.27995C168.483 4.35195 168.935 3.55195 169.838 2.87995C170.741 2.20795 171.833 1.87195 173.113 1.87195C174.393 1.87195 175.465 2.20795 176.331 2.87995C177.234 3.55195 177.686 4.35195 177.686 5.27995C177.686 6.17595 177.234 6.97595 176.331 7.67995C175.465 8.38395 174.393 8.73595 173.113 8.73595ZM173.113 35.9999C171.833 35.9999 170.779 35.7599 169.951 35.2799C169.16 34.7999 168.765 34.2719 168.765 33.6959V15.4079C168.765 14.7359 169.16 14.1919 169.951 13.7759C170.779 13.3599 171.833 13.1519 173.113 13.1519C174.317 13.1519 175.352 13.3599 176.218 13.7759C177.084 14.1919 177.517 14.7359 177.517 15.4079V33.6959C177.517 34.2719 177.084 34.7999 176.218 35.2799C175.352 35.7599 174.317 35.9999 173.113 35.9999Z" fill="white"/>
<path d="M186.897 35.9999C185.617 35.9999 184.564 35.7599 183.735 35.2799C182.945 34.7999 182.55 34.2719 182.55 33.6959V15.4079C182.55 14.7359 182.945 14.1919 183.735 13.7759C184.564 13.3599 185.617 13.1519 186.897 13.1519C187.951 13.1519 188.855 13.3599 189.607 13.7759C190.36 14.1919 190.737 14.7359 190.737 15.4079V16.5119C191.264 15.5839 192.186 14.7519 193.503 14.0159C194.821 13.2479 196.42 12.8639 198.302 12.8639C200.034 12.8639 201.615 13.3279 203.045 14.2559C204.513 15.1519 205.68 16.3679 206.546 17.9039C207.449 19.4079 207.901 21.0879 207.901 22.9439V33.6959C207.901 34.4639 207.43 35.04 206.489 35.424C205.586 35.808 204.588 35.9999 203.497 35.9999C202.481 35.9999 201.502 35.808 200.561 35.424C199.62 35.04 199.149 34.4639 199.149 33.6959V22.9439C199.149 22.3359 198.961 21.7599 198.585 21.2159C198.246 20.6719 197.757 20.2239 197.117 19.8719C196.514 19.5199 195.837 19.3439 195.084 19.3439C194.482 19.3439 193.88 19.4879 193.277 19.7759C192.713 20.0639 192.242 20.4799 191.866 21.0239C191.489 21.5359 191.301 22.1759 191.301 22.9439V33.6959C191.301 34.2719 190.868 34.7999 190.003 35.2799C189.137 35.7599 188.102 35.9999 186.897 35.9999Z" fill="white"/>
<path d="M222.083 36.4799C220.125 36.4799 218.319 36.2719 216.662 35.8559C215.044 35.4399 213.745 34.8959 212.767 34.2239C211.826 33.5519 211.355 32.8319 211.355 32.0639C211.355 31.6799 211.468 31.2319 211.694 30.7199C211.957 30.2079 212.296 29.7599 212.71 29.3759C213.162 28.9919 213.67 28.7999 214.235 28.7999C214.837 28.7999 215.439 28.9919 216.041 29.3759C216.644 29.7279 217.378 30.0799 218.243 30.4319C219.147 30.7839 220.351 30.9599 221.857 30.9599C223.363 30.9599 224.322 30.7839 224.736 30.4319C225.15 30.0479 225.357 29.6959 225.357 29.3759C225.357 28.8319 225.038 28.4159 224.398 28.1279C223.758 27.8079 222.93 27.5519 221.913 27.3599C220.935 27.1359 219.881 26.8959 218.752 26.6399C217.622 26.3519 216.55 25.9679 215.533 25.4879C214.555 25.0079 213.745 24.3519 213.105 23.5199C212.465 22.6879 212.146 21.5999 212.146 20.2559C212.146 19.0719 212.465 17.9199 213.105 16.7999C213.783 15.6479 214.893 14.7039 216.437 13.9679C217.98 13.2319 220.088 12.8639 222.76 12.8639C224.416 12.8639 225.96 13.0079 227.39 13.2959C228.858 13.5839 230.044 13.9999 230.947 14.5439C231.888 15.0559 232.359 15.6479 232.359 16.3199C232.359 16.6399 232.227 17.0879 231.963 17.6639C231.738 18.2079 231.38 18.7039 230.891 19.1519C230.439 19.5999 229.874 19.8239 229.197 19.8239C228.708 19.8239 228.162 19.7119 227.559 19.4879C226.957 19.2319 226.28 18.9919 225.527 18.7679C224.774 18.5119 223.889 18.3839 222.873 18.3839C222.12 18.3839 221.499 18.4639 221.01 18.6239C220.558 18.7839 220.219 18.9759 219.994 19.1999C219.768 19.4239 219.655 19.6639 219.655 19.9199C219.655 20.3679 219.975 20.7199 220.615 20.9759C221.255 21.1999 222.083 21.4239 223.099 21.6479C224.115 21.8399 225.188 22.0799 226.317 22.3679C227.447 22.6239 228.519 23.0239 229.536 23.5679C230.552 24.0799 231.38 24.7839 232.02 25.6799C232.66 26.5439 232.98 27.6799 232.98 29.0879C232.98 31.3279 232.039 33.1199 230.157 34.4639C228.312 35.8079 225.621 36.4799 222.083 36.4799Z" fill="white"/>
</svg>
